<svg width="106" height="29" viewBox="0 0 106 29" fill="none" xmlns="http://www.w3.org/2000/svg"><g clip-path="url(#clip0_899_7324)"><path d="M24.8226 24.2461C23.6869 25.3738 22.3601 26.2941 20.9029 26.9647C19.1775 27.786 17.3046 28.2576 15.3936 28.3519C13.4825 28.4461 11.5717 28.1612 9.77288 27.5137C7.96883 26.8701 6.31112 25.8779 4.89551 24.5943C3.47991 23.3108 2.33449 21.7614 1.52544 20.0357C-1.86809 12.8682 1.11364 4.27322 8.31251 0.471749L8.35827 0.452817L8.67093 0.706502L10.524 2.7852C10.8206 3.08006 11.1732 3.31354 11.5613 3.47213C11.9495 3.63071 12.3654 3.71125 12.7851 3.70906C13.611 3.71217 14.4056 3.39574 15.0004 2.82685L17.8068 0.134766L17.8564 0.157484C18.1465 0.345809 18.4095 0.572554 18.638 0.83145L18.7219 0.922322L18.7905 1.00184C19.3548 1.66444 21.1508 4.17099 20.5483 8.5177L23.2174 11.9027L23.1373 12.3873C22.756 14.3373 20.7847 15.9881 18.2796 16.4955C17.7379 16.6083 17.1859 16.6654 16.6324 16.6659C14.0015 16.6659 11.4201 15.2574 9.71949 12.9061L9.6928 12.8644L9.71187 12.8038L11.1341 11.4105L11.1837 11.4597L11.2104 11.4975C11.2981 11.6225 11.3896 11.7399 11.4773 11.8762C12.8576 13.633 14.6992 14.6023 16.6629 14.6023C17.0716 14.602 17.4791 14.5601 17.8792 14.4774C19.3548 14.1783 20.5864 13.3415 21.0135 12.3495L18.394 9.06293L18.4512 8.59721C18.9469 5.70446 18.2033 3.84916 17.7191 3.00102L17.6848 3.03131L17.5628 3.16383L16.4189 4.29973C15.4425 5.23469 14.1376 5.7549 12.7813 5.74989C12.092 5.75503 11.4086 5.62375 10.7709 5.36371C10.1333 5.10367 9.55419 4.72009 9.06748 4.23536L8.00748 2.93286C2.66933 6.26862 0.652273 13.3945 3.38235 19.1573C4.39782 21.2892 6.00015 23.0923 8.00413 24.3579C10.0081 25.6236 12.3319 26.3003 14.7068 26.3097C16.5543 26.3118 18.3787 25.9017 20.045 25.1094C21.3542 24.4918 22.5451 23.6526 23.5644 22.6294L24.8226 24.2461ZM17.0938 7.76801C17.0923 7.53544 17.0214 7.30852 16.8902 7.11587C16.759 6.92322 16.5733 6.77348 16.3565 6.68551C16.1397 6.59754 15.9015 6.5753 15.6719 6.62159C15.4424 6.66788 15.2318 6.78062 15.0668 6.9456C14.9017 7.11058 14.7895 7.32041 14.7444 7.54862C14.6992 7.77684 14.7231 8.01321 14.8131 8.22794C14.9031 8.44267 15.0551 8.62613 15.2499 8.75519C15.4448 8.88425 15.6737 8.95312 15.9079 8.95313C16.0642 8.95263 16.2188 8.92159 16.3629 8.86176C16.507 8.80193 16.6379 8.7145 16.748 8.60445C16.8581 8.4944 16.9453 8.36389 17.0047 8.22038C17.064 8.07686 17.0943 7.92314 17.0938 7.76801Z" fill="#1C1C1C"></path><path d="M94.1046 26.9345V25.348H95.5497C96.4495 25.348 96.7393 24.6362 97.174 23.5571L97.277 23.2996L97.6278 22.4628L91.3936 8.18457H93.3L98.5352 20.1191L103.206 8.18457H105.113L99.7973 21.7586L99.0805 23.629C98.2378 25.8327 97.1397 26.9496 95.8128 26.9496L94.1046 26.9345Z" fill="#1C1C1C"></path><path d="M51.9935 7.67285C45.8585 7.67285 45.3818 12.9737 45.3818 14.6056C45.3818 18.0701 47.1167 21.7769 51.9935 21.7769C56.8703 21.7769 58.609 18.0701 58.609 14.6056C58.609 12.9775 58.1324 7.67285 51.9935 7.67285ZM51.9935 20.1109C48.0662 20.1109 47.479 16.6275 47.479 14.5526C47.479 11.1449 49.0385 9.33505 51.9935 9.33505C54.9486 9.33505 56.5119 11.1411 56.5119 14.5526C56.5119 16.6275 55.9247 20.1185 51.9935 20.1185V20.1109Z" fill="#1C1C1C"></path><path d="M36.7116 21.7775C31.8158 21.7775 30.0732 18.0594 30.0732 14.5835C30.0732 12.963 30.546 7.67725 36.6582 7.67725C41.1728 7.67725 42.6522 10.5321 43.0793 13.0273H41.0889C40.639 10.6154 39.11 9.33945 36.6582 9.33945C34.6107 9.33945 32.1704 10.2444 32.1704 14.557C32.1704 18.1389 33.7833 20.1191 36.7116 20.1191C38.9994 20.1191 40.5703 18.934 41.0813 16.8553H43.0869C42.7056 18.5062 41.3901 21.7775 36.7116 21.7775Z" fill="#1C1C1C"></path><path d="M89.1545 2.98975H87.168V21.5125H89.1545V2.98975Z" fill="#1C1C1C"></path><path d="M83.7063 8.18457H81.7197V21.5087H83.7063V8.18457Z" fill="#1C1C1C"></path><path d="M71.3027 21.5117V8.17628H73.2931V10.626H73.6973C73.6973 10.3648 74.4599 7.93774 76.9307 7.93774C77.5356 7.93082 78.1329 8.0726 78.6694 8.35045V10.2209C78.1153 9.90602 77.489 9.73783 76.8506 9.73246C74.5132 9.73246 73.2931 12.1709 73.2931 14.579V21.5117H71.3027Z" fill="#1C1C1C"></path><path d="M61.2744 21.5121V8.17665H63.2648V10.6264H63.6766C63.6766 10.3651 64.4201 7.93811 66.9062 7.93811C67.5073 7.93321 68.1004 8.07493 68.6334 8.35082V10.2213C68.0782 9.90576 67.4505 9.73755 66.8108 9.73283C64.4773 9.73283 63.2533 12.1712 63.2533 14.5793V21.5121H61.2744Z" fill="#1C1C1C"></path><path d="M83.7256 6.17034V4.15576H81.6971V6.17034H83.7256Z" fill="#1C1C1C"></path></g><defs><clipPath id="clip0_899_7324"><rect width="105.238" height="28.3975" fill="white" transform="translate(0 0.0512695)"></rect></clipPath></defs></svg>