<svg width="99" height="16" viewBox="0 0 99 16" fill="none" xmlns="http://www.w3.org/2000/svg"><path d="M5.65525 13.9368C6.07265 13.9368 6.46024 13.8467 6.81801 13.6365C7.17578 13.4264 7.4143 13.1562 7.56337 12.7959C8.15966 13.006 8.54725 13.2162 8.72613 13.3963C8.90502 13.6065 8.99446 13.8167 8.99446 14.1169C8.99446 14.6573 8.6665 15.0777 8.0404 15.3779C7.4143 15.6782 6.57949 15.8283 5.5658 15.8283C4.1049 15.8283 2.91232 15.4079 2.01789 14.5973C1.12346 13.7867 0.706055 12.6157 0.706055 11.1446C0.706055 10.2739 0.855127 9.49326 1.15327 8.83274C1.45142 8.17221 1.839 7.63179 2.31603 7.24148C2.79306 6.85117 3.29991 6.55093 3.83657 6.34076C4.37323 6.1306 4.9397 6.04053 5.50618 6.04053C6.34098 6.04053 7.11616 6.22067 7.89133 6.55093C8.63669 6.88119 9.02428 7.36157 9.02428 7.96205C9.02428 8.77269 8.36836 9.25307 7.08634 9.40319C6.96708 8.95283 6.75838 8.59255 6.46024 8.32233C6.16209 8.05212 5.83413 7.93202 5.44655 7.93202C4.96952 7.93202 4.55211 8.17221 4.19434 8.68262C3.83657 9.19302 3.65768 9.91359 3.65768 10.8744C3.65768 12.916 4.34341 13.9368 5.65525 13.9368Z" fill="#1C1C1C"></path><path d="M11.8869 6.16087C12.3937 6.16087 12.7813 6.25094 13.0496 6.43109C13.318 6.61123 13.467 6.94149 13.467 7.45189V7.72211C13.8248 7.30178 14.2422 6.91147 14.7192 6.5812C15.1963 6.25094 15.7031 6.0708 16.1801 6.0708C16.5677 6.0708 16.8659 6.16087 17.0746 6.34101C17.2833 6.52116 17.3727 6.76135 17.3727 7.03156C17.3727 7.57199 17.1342 8.11242 16.6572 8.62282C16.21 8.32258 15.7627 8.17246 15.3752 8.17246C14.8087 8.17246 14.1229 8.56277 13.3478 9.37341C13.318 10.154 13.2881 10.9046 13.2881 11.6252C13.2881 13.5167 13.4074 14.7777 13.6161 15.4682C13.0794 15.6484 12.513 15.7084 11.9763 15.7084C11.3502 15.7084 10.9328 15.5883 10.6943 15.3782C10.4558 15.168 10.3365 14.8377 10.3365 14.4174C10.3365 14.2072 10.3365 13.6968 10.3663 12.9462C10.3961 12.1956 10.3961 11.5351 10.3961 11.0848C10.3961 9.19327 10.3365 7.66206 10.2471 6.46111C10.7837 6.25094 11.3204 6.16087 11.8869 6.16087Z" fill="#1C1C1C"></path><path d="M26.2864 14.5075C25.392 15.3782 24.259 15.8285 22.8279 15.8285C21.3968 15.8285 20.2341 15.3782 19.3695 14.5075C18.5048 13.6368 18.0576 12.4659 18.0576 11.0247C18.0576 9.4935 18.5048 8.29255 19.3695 7.39184C20.2341 6.49112 21.3968 6.01074 22.8279 6.01074C24.259 6.01074 25.4218 6.4611 26.2864 7.36181C27.1808 8.26252 27.5982 9.4935 27.5982 10.9947C27.5982 12.4959 27.1808 13.6368 26.2864 14.5075ZM24.6764 11.445C24.6764 10.4242 24.4975 9.61359 24.1696 8.92305C23.8416 8.26252 23.3944 7.93226 22.7981 7.93226C22.2316 7.93226 21.7844 8.20248 21.4863 8.7429C21.1583 9.28333 21.0092 10.0039 21.0092 10.8746C21.0092 11.7453 21.1583 12.4659 21.4863 13.0663C21.8142 13.6368 22.2615 13.937 22.7981 13.937C23.3944 13.937 23.8416 13.6968 24.1696 13.2465C24.5273 12.7661 24.6764 12.1656 24.6764 11.445Z" fill="#1C1C1C"></path><path d="M35.4101 6.01049C35.9468 6.01049 36.3344 6.10056 36.6027 6.25068C36.871 6.4008 36.9903 6.70104 36.9903 7.09135C36.9903 7.33154 36.9605 7.57173 36.9008 7.84194C37.7655 9.58332 38.3617 11.2046 38.6897 12.7358C39.4649 10.3039 39.8823 8.35235 39.8823 6.91121C39.8823 6.70104 39.8525 6.49087 39.8227 6.28071C40.2699 6.10056 40.7171 5.98047 41.1941 5.98047C41.7308 5.98047 42.1184 6.07054 42.3867 6.22066C42.655 6.37078 42.7743 6.67102 42.7743 7.06132C42.7743 7.84194 42.4761 9.04289 41.9097 10.7242C41.3432 12.4056 40.7469 13.6666 40.1804 14.5072C39.7034 15.2578 38.958 15.6181 37.9742 15.6181C37.5568 15.6181 37.1692 15.5581 36.7518 15.438C36.5133 14.207 36.2151 12.8559 35.8573 11.4748C35.4101 12.7658 34.9033 13.7566 34.4262 14.5072C33.9492 15.2578 33.2039 15.6181 32.22 15.6181C31.8026 15.6181 31.415 15.5581 30.9976 15.438C30.6994 13.9668 30.2522 12.2855 29.5963 10.424C28.9404 8.56251 28.4037 7.36156 27.9863 6.88118C28.5826 6.34075 29.2087 6.04052 29.8646 6.04052C30.5802 6.04052 31.087 6.43083 31.4448 7.24147C32.0411 9.04289 32.5181 10.8443 32.9355 12.6758C33.7107 10.2438 34.0983 8.2923 34.0983 6.85116C34.0983 6.64099 34.0685 6.43083 34.0387 6.22066C34.4561 6.13059 34.9033 6.01049 35.4101 6.01049Z" fill="#1C1C1C"></path><path d="M43.7578 10.9344C43.7578 9.58336 44.1454 8.41243 44.8908 7.45167C45.6361 6.49091 46.5604 6.01053 47.6933 6.01053C48.4387 6.01053 49.184 6.2207 49.8996 6.67105C49.9294 5.83039 49.9294 5.16986 49.9294 4.68948C49.9294 3.24834 49.8698 2.07742 49.7803 1.14668C50.3766 0.966536 50.8238 0.876465 51.0922 0.876465C52.3146 0.876465 52.9407 1.2968 52.9407 2.13746C52.9407 2.91808 52.9108 4.41927 52.8512 6.64103C52.7916 8.86279 52.7618 10.364 52.7618 11.1746C52.7618 13.2763 52.881 14.7174 53.1494 15.498C52.5232 15.6482 52.0164 15.7382 51.599 15.7382C51.0623 15.7382 50.6449 15.6482 50.4362 15.438C50.1977 15.2278 50.0487 14.9576 49.9592 14.5973C49.6313 14.9576 49.2139 15.2278 48.7666 15.468C48.3194 15.6782 47.8722 15.7983 47.4846 15.7983C46.4709 15.7983 45.6063 15.3479 44.8908 14.4172C44.1752 13.4864 43.7578 12.3455 43.7578 10.9344ZM49.8101 8.35238C49.4226 8.05214 49.0052 7.90203 48.5878 7.90203C47.9915 7.90203 47.5442 8.17224 47.1865 8.68264C46.8585 9.19305 46.6796 9.88359 46.6796 10.7543C46.6796 11.715 46.8585 12.4957 47.1865 13.0961C47.5144 13.6966 47.9318 14.0269 48.4387 14.0269C49.0052 14.0269 49.4822 13.8167 49.84 13.4264C49.84 10.7243 49.8101 9.01291 49.8101 8.35238Z" fill="#1C1C1C"></path><path d="M59.9468 9.2233C59.8276 8.80296 59.6487 8.50273 59.3804 8.26254C59.112 8.02235 58.8437 7.93227 58.5158 7.93227C58.2176 7.93227 57.9493 8.02235 57.7406 8.17246C57.5319 8.32258 57.4424 8.56277 57.4424 8.86301C57.4424 9.19327 57.5915 9.43346 57.8897 9.6136C58.1878 9.79375 58.5754 9.94387 59.0226 10.064C59.4698 10.1841 59.8872 10.3042 60.3344 10.4843C60.7817 10.6344 61.1394 10.9346 61.4674 11.2949C61.7655 11.6852 61.9444 12.1656 61.9444 12.7661C61.9444 13.7869 61.5568 14.5375 60.7518 15.0479C59.9468 15.5583 59.0226 15.8285 57.9493 15.8285C57.6213 15.8285 57.2636 15.7985 56.9356 15.7685C56.6076 15.7385 56.22 15.6784 55.8026 15.5883C55.3852 15.4983 55.0275 15.3181 54.789 15.0779C54.5504 14.8377 54.4014 14.5375 54.4014 14.1772C54.4014 13.4566 54.938 12.9162 55.9815 12.5259C56.1306 13.0063 56.3691 13.3666 56.7269 13.6068C57.0847 13.847 57.4723 13.9671 57.8897 13.9671C58.7543 13.9671 59.2015 13.6368 59.2015 13.0063C59.2015 12.7061 58.963 12.4358 58.5158 12.2557C58.0387 12.0756 57.5319 11.8954 56.9952 11.7753C56.4586 11.6552 55.9219 11.355 55.4747 10.9347C55.0275 10.5143 54.7591 9.91384 54.7591 9.16325C54.7591 8.23251 55.1467 7.48192 55.9517 6.91147C56.7567 6.34101 57.6511 6.0708 58.635 6.0708C59.0822 6.0708 59.5593 6.13085 60.0065 6.22092C60.4537 6.31099 60.9009 6.52116 61.2885 6.79137C61.6761 7.06158 61.855 7.42187 61.855 7.8422C61.855 8.20249 61.7059 8.50273 61.3779 8.77294C61.05 9.04315 60.6028 9.13322 59.9468 9.2233Z" fill="#1C1C1C"></path><path d="M71.2766 14.5072C70.3822 15.3779 69.2493 15.8283 67.8182 15.8283C66.3871 15.8283 65.2243 15.3779 64.3597 14.5072C63.4951 13.6365 63.0479 12.4656 63.0479 11.0245C63.0479 9.49326 63.4951 8.29231 64.3597 7.3916C65.2243 6.49088 66.3871 6.04053 67.8182 6.04053C69.2493 6.04053 70.412 6.49088 71.2766 7.3916C72.1711 8.29231 72.5885 9.52328 72.5885 11.0245C72.5885 12.4956 72.1412 13.6365 71.2766 14.5072ZM69.6667 11.4448C69.6667 10.424 69.4878 9.61336 69.1598 8.92281C68.8318 8.26229 68.3846 7.93202 67.7883 7.93202C67.2219 7.93202 66.7747 8.20224 66.4765 8.74267C66.1784 9.28309 65.9995 10.0037 65.9995 10.8744C65.9995 11.745 66.1486 12.4656 66.4765 13.0661C66.8045 13.6666 67.2517 13.9368 67.7883 13.9368C68.3846 13.9368 68.8318 13.6966 69.1598 13.2462C69.4878 12.7659 69.6667 12.1654 69.6667 11.4448Z" fill="#1C1C1C"></path><path d="M75.5109 6.16087C76.0177 6.16087 76.4053 6.25094 76.6737 6.43109C76.942 6.61123 77.0911 6.94149 77.0911 7.45189V7.72211C77.4488 7.30178 77.8662 6.91147 78.3433 6.5812C78.8203 6.25094 79.3271 6.0708 79.8042 6.0708C80.1918 6.0708 80.4899 6.16087 80.6986 6.34101C80.9073 6.52116 80.9967 6.76135 80.9967 7.03156C80.9967 7.57199 80.7582 8.11242 80.2812 8.62282C79.834 8.32258 79.3868 8.17246 78.9992 8.17246C78.4327 8.17246 77.747 8.56277 76.9718 9.37341C76.942 10.154 76.9122 10.9046 76.9122 11.6252C76.9122 13.5167 77.0314 14.7777 77.2401 15.4682C76.7035 15.6484 76.137 15.7084 75.6003 15.7084C74.9742 15.7084 74.5568 15.5883 74.3183 15.3782C74.0798 15.168 73.9605 14.8377 73.9605 14.4174C73.9605 14.2072 73.9605 13.6968 73.9904 12.9462C74.0202 12.1956 74.0202 11.5351 74.0202 11.0848C74.0202 9.19327 73.9605 7.66206 73.8711 6.46111C74.4376 6.25094 74.9742 6.16087 75.5109 6.16087Z" fill="#1C1C1C"></path><path d="M87.1978 9.2233C87.0786 8.80296 86.8997 8.50273 86.6314 8.26254C86.363 8.02235 86.0947 7.93227 85.7667 7.93227C85.4686 7.93227 85.2003 8.02235 84.9916 8.17246C84.7829 8.32258 84.6934 8.56277 84.6934 8.86301C84.6934 9.19327 84.8425 9.43346 85.1406 9.6136C85.4388 9.79375 85.8264 9.94387 86.2736 10.064C86.7208 10.1841 87.1382 10.3042 87.5854 10.4843C88.0326 10.6344 88.3904 10.9346 88.7184 11.2949C89.0165 11.6852 89.1954 12.1656 89.1954 12.7661C89.1954 13.7869 88.8078 14.5375 88.0028 15.0479C87.1978 15.5583 86.2736 15.8285 85.2003 15.8285C84.8723 15.8285 84.5145 15.7985 84.1866 15.7685C83.8586 15.7385 83.471 15.6784 83.0536 15.5883C82.6362 15.4983 82.2784 15.3181 82.0399 15.0779C81.8014 14.8377 81.6523 14.5375 81.6523 14.1772C81.6523 13.4566 82.189 12.9162 83.2325 12.5259C83.3816 13.0063 83.6201 13.3666 83.9779 13.6068C84.3356 13.847 84.7232 13.9671 85.1406 13.9671C86.0053 13.9671 86.4525 13.6368 86.4525 13.0063C86.4525 12.7061 86.2139 12.4358 85.7667 12.2557C85.2897 12.0756 84.7829 11.8954 84.2462 11.7753C83.7095 11.6552 83.1729 11.355 82.7257 10.9347C82.2784 10.5143 82.0101 9.91384 82.0101 9.16325C82.0101 8.23251 82.3977 7.48192 83.2027 6.91147C84.0077 6.34101 84.9021 6.0708 85.886 6.0708C86.3332 6.0708 86.8102 6.13085 87.2575 6.22092C87.7047 6.31099 88.1519 6.52116 88.5395 6.79137C88.9271 7.06158 89.1059 7.42187 89.1059 7.8422C89.1059 8.20249 88.9569 8.50273 88.6289 8.77294C88.301 9.04315 87.8239 9.13322 87.1978 9.2233Z" fill="#1C1C1C"></path><path d="M92.2359 9.40343C91.0731 9.19326 90.5066 8.68286 90.5066 7.90224C90.5066 7.36181 90.8942 6.91145 91.6396 6.55117C92.3849 6.19088 93.3092 6.01074 94.3527 6.01074C95.7241 6.01074 96.7378 6.28096 97.3937 6.79136C98.0497 7.30176 98.3776 8.20248 98.3776 9.43345C98.3776 9.52352 98.3776 9.91383 98.3478 10.6044C98.318 11.2949 98.318 11.7753 98.318 12.1056C98.318 13.6068 98.4373 14.7477 98.7056 15.4983C98.1391 15.6484 97.6024 15.7384 97.1552 15.7384C96.2012 15.7384 95.6645 15.3481 95.5154 14.5975C95.1875 14.9578 94.7999 15.2581 94.293 15.4682C93.7862 15.6784 93.3092 15.7985 92.8023 15.7985C92.0868 15.7985 91.4607 15.5583 90.9836 15.1079C90.5066 14.6576 90.2383 13.937 90.2383 13.0363C90.2383 12.2857 90.3874 11.7453 90.6855 11.415C90.9836 11.0848 91.3712 10.8145 91.8781 10.6344C92.8918 10.3041 94.0545 10.124 95.426 10.0339C95.426 9.22328 95.3365 8.68286 95.1577 8.3526C94.9788 8.02233 94.621 7.87222 94.0545 7.87222C93.7266 7.87222 93.3688 8.02233 93.011 8.29255C92.6831 8.56276 92.3849 8.92305 92.2359 9.40343ZM95.4558 11.4751C95.0682 11.5351 94.7701 11.5952 94.5614 11.6552C94.3527 11.7153 94.1142 11.8053 93.8756 11.8954C93.6371 11.9855 93.4582 12.1356 93.3688 12.3458C93.2794 12.5559 93.2197 12.7361 93.2197 13.0063C93.2197 13.3365 93.3092 13.5767 93.4582 13.7569C93.6073 13.907 93.816 13.9971 94.0545 13.9971C94.5912 13.9971 95.0682 13.8469 95.426 13.5167C95.426 13.3966 95.3962 13.1864 95.3962 12.9162C95.3962 12.4358 95.426 11.9554 95.4558 11.4751Z" fill="#1C1C1C"></path></svg>