<svg width="70" height="51" viewBox="0 0 70 51" fill="none" xmlns="http://www.w3.org/2000/svg"><path d="M12.1803 40.9996L9.55119 40.9996L9.55119 34.2252L6.57671 39.1728L6.28037 39.1728L3.30589 34.2252L3.30589 40.9996L0.676758 40.9996L0.676758 29.3408L3.30589 29.3408L6.4252 34.521L9.54451 29.3408L12.1736 29.3408L12.1803 40.9996Z" fill="#1C1C1C"></path><path d="M19.9484 31.9061L19.9484 34.1642L24.2123 34.1642L24.2123 36.7295L19.9484 36.7295L19.9484 40.9996L17.3252 40.9996L17.3252 29.3408L24.2879 29.3408L24.2879 31.9061L19.9484 31.9061Z" fill="#1C1C1C"></path><path d="M31.7544 31.9061L31.7544 34.1642L36.0155 34.1642L36.0155 36.7295L31.7544 36.7295L31.7544 40.9996L29.1328 40.9996L29.1328 29.3408L36.0955 29.3408L36.0955 31.9061L31.7544 31.9061Z" fill="#1C1C1C"></path><path d="M46.9663 39.1682L42.7963 39.1682L42.235 40.9996L39.4268 40.9996L43.2444 29.3408L46.5073 29.3408L50.3249 40.9996L47.5188 40.9996L46.9663 39.1682ZM46.1962 36.6685L44.891 32.3893L43.575 36.6685L46.1962 36.6685Z" fill="#1C1C1C"></path><path d="M56.9833 29.3408L56.9833 40.9996L54.5615 40.9996L54.5615 29.3408L56.9833 29.3408Z" fill="#1C1C1C"></path><path d="M61.2197 38.4695L63.4658 37.1536C63.874 38.1082 64.569 38.7505 65.8575 38.7505C67.0952 38.7505 67.4019 38.2554 67.4019 37.8116C67.4019 37.1046 66.751 36.8258 65.0433 36.3485C63.3356 35.8712 61.6897 35.0482 61.6897 32.8447C61.6897 30.6411 63.5452 29.3408 65.5133 29.3408C67.3865 29.3408 68.8493 30.2463 69.6788 31.9391L67.4769 33.2394C67.0864 32.4164 66.548 31.9012 65.5067 31.9012C64.6947 31.9012 64.2865 32.3116 64.2865 32.7733C64.2865 33.2996 64.5645 33.6654 66.3384 34.2029C68.0616 34.7293 69.9988 35.3382 69.9988 37.7714C69.9988 39.9906 68.2337 41.3065 65.767 41.3065C63.3841 41.3154 61.8552 40.1646 61.2197 38.4695Z" fill="#1C1C1C"></path><path d="M15.8133 48.0649L15.8133 49.8977L14.8423 49.8977L14.8423 48.1416C14.8423 47.8436 14.6878 47.6541 14.381 47.6541C14.0742 47.6541 13.8759 47.867 13.8759 48.2139L13.8759 49.8977L12.9049 49.8977L12.9049 48.1416C12.9049 47.8436 12.7503 47.6541 12.4436 47.6541C12.1368 47.6541 11.9408 47.867 11.9408 48.2139L11.9408 49.8977L10.9697 49.8977L10.9697 46.9176L11.9408 46.9176L11.9408 47.1922C12.041 47.0698 12.1729 46.9728 12.3245 46.9099C12.4761 46.847 12.6423 46.8204 12.808 46.8324C12.9739 46.8252 13.139 46.8577 13.2873 46.9267C13.4356 46.9957 13.5621 47.0989 13.6545 47.2262C13.7623 47.093 13.9049 46.987 14.0691 46.9181C14.2332 46.8493 14.4135 46.8198 14.5932 46.8324C15.329 46.8346 15.8133 47.3178 15.8133 48.0649Z" fill="#1C1C1C"></path><path d="M19.7479 46.9268L19.7479 50.1118L18.7351 50.1118L18.7351 49.8138C18.6082 49.9448 18.4523 50.0476 18.2784 50.1149C18.1046 50.1822 17.9171 50.2122 17.7295 50.2028C16.8442 50.2028 16.1152 49.468 16.1152 48.517C16.1152 47.5661 16.837 46.8313 17.7295 46.8313C17.9171 46.8219 18.1046 46.8519 18.2784 46.9192C18.4523 46.9865 18.6082 47.0893 18.7351 47.2203L18.7351 46.9223L19.7479 46.9268ZM18.7351 48.5193C18.7309 48.3699 18.6801 48.2249 18.5891 48.1027C18.4982 47.9804 18.3711 47.8862 18.2238 47.8319C18.0765 47.7775 17.9156 47.7655 17.7611 47.7973C17.6066 47.8291 17.4655 47.9032 17.3554 48.0105C17.2452 48.1178 17.171 48.2534 17.142 48.4003C17.113 48.5473 17.1305 48.6991 17.1922 48.8367C17.254 48.9743 17.3573 49.0916 17.4893 49.174C17.6212 49.2563 17.7759 49.3 17.934 49.2996C18.0423 49.3041 18.1504 49.2868 18.2511 49.249C18.3519 49.2112 18.4431 49.1536 18.5187 49.0802C18.5943 49.0067 18.6527 48.919 18.69 48.8227C18.7273 48.7265 18.7427 48.6239 18.7351 48.5216L18.7351 48.5193Z" fill="#1C1C1C"></path><path d="M22.3015 49.8966L21.2962 48.5405L21.2962 49.8966L20.3535 49.8966L20.3535 45.6011L21.2962 45.6011L21.2962 48.1731L22.2388 46.8302L23.3494 46.8302L22.2052 48.3612L23.3808 49.8922L22.3015 49.8966Z" fill="#1C1C1C"></path><path d="M24.9988 49.3399C25.1009 49.3455 25.203 49.3282 25.2989 49.2891C25.3948 49.25 25.4824 49.1899 25.5565 49.1125L26.2614 49.5447C26.1162 49.7612 25.9242 49.9346 25.7027 50.0494C25.4812 50.1642 25.2371 50.2167 24.9925 50.2021C23.9994 50.2021 23.3816 49.4673 23.3816 48.5164C23.3752 48.2922 23.4109 48.0689 23.4865 47.8605C23.5621 47.652 23.676 47.4629 23.821 47.3048C23.9661 47.1467 24.1392 47.023 24.3297 46.9415C24.5202 46.8599 24.7239 46.8222 24.9283 46.8308C25.1278 46.829 25.3256 46.8719 25.5095 46.9568C25.6934 47.0417 25.8596 47.1668 25.998 47.3246C26.1363 47.4824 26.2439 47.6694 26.3142 47.8743C26.3844 48.0793 26.4158 48.2977 26.4065 48.5164C26.4077 48.6449 26.3959 48.7731 26.3713 48.8986L24.298 48.8986C24.412 49.2308 24.6795 49.3399 24.9988 49.3399ZM25.5337 48.1775C25.4904 48.034 25.407 47.9091 25.2953 47.8206C25.1837 47.7321 25.0494 47.6845 24.9117 47.6845C24.7739 47.6845 24.6397 47.7321 24.528 47.8206C24.4164 47.9091 24.333 48.034 24.2897 48.1775L25.5337 48.1775Z" fill="#1C1C1C"></path><path d="M30.1505 49.3467C30.2536 49.3502 30.3564 49.3303 30.4523 49.2885C30.5482 49.2466 30.6353 49.1836 30.7082 49.1033L31.4069 49.5446C31.2618 49.7613 31.0699 49.9348 30.8483 50.0496C30.6268 50.1644 30.3826 50.2168 30.138 50.2021C29.1449 50.2021 28.527 49.4673 28.527 48.5164C28.5209 48.2921 28.5569 48.0687 28.6327 47.8603C28.7086 47.6518 28.8226 47.4627 28.9679 47.3047C29.1131 47.1466 29.2864 47.023 29.477 46.9414C29.6676 46.8599 29.8714 46.8223 30.0758 46.8308C30.2752 46.8293 30.4727 46.8724 30.6564 46.9574C30.8401 47.0425 31.006 47.1677 31.1442 47.3254C31.2823 47.4831 31.3897 47.6701 31.4598 47.8749C31.53 48.0796 31.5613 48.2979 31.552 48.5164C31.5533 48.6448 31.5414 48.773 31.5168 48.8986L29.4434 48.8986C29.5637 49.2375 29.8312 49.3467 30.1505 49.3467ZM30.6854 48.1843C30.6421 48.0408 30.5587 47.9159 30.447 47.8274C30.3354 47.7389 30.2011 47.6913 30.0634 47.6913C29.9256 47.6913 29.7914 47.7389 29.6797 47.8274C29.568 47.9159 29.4847 48.0408 29.4414 48.1843L30.6854 48.1843Z" fill="#1C1C1C"></path><path d="M35.1874 48.0658L35.1874 49.8977L34.2413 49.8977L34.2413 48.1955C34.2492 48.1244 34.2408 48.0526 34.2164 47.9849C34.192 47.9172 34.1523 47.8554 34.1001 47.8037C34.0479 47.7521 33.9844 47.7118 33.9141 47.6858C33.8437 47.6598 33.7683 47.6486 33.6929 47.653C33.3468 47.653 33.1063 47.8423 33.1063 48.2658L33.1063 49.8956L32.1602 49.8956L32.1602 46.9168L33.1063 46.9168L33.1063 47.1955C33.2155 47.0724 33.3538 46.9753 33.51 46.9121C33.6661 46.8489 33.8358 46.8214 34.0053 46.8317C34.6458 46.836 35.1874 47.2615 35.1874 48.0658Z" fill="#1C1C1C"></path><path d="M39.122 45.6011L39.122 50.1099L38.1935 50.1099L38.1935 49.8091C38.0773 49.9413 37.9343 50.0451 37.7749 50.113C37.6155 50.1808 37.4437 50.2111 37.2717 50.2017C36.4602 50.2017 35.792 49.4602 35.792 48.5006C35.792 47.541 36.4536 46.7994 37.2717 46.7994C37.4437 46.79 37.6155 46.8203 37.7749 46.8882C37.9343 46.956 38.0773 47.0598 38.1935 47.192L38.1935 45.6011L39.122 45.6011ZM38.1935 48.5006C38.1901 48.3497 38.1439 48.2033 38.0609 48.0797C37.9779 47.956 37.8617 47.8606 37.7268 47.8054C37.592 47.7502 37.4445 47.7376 37.3028 47.7692C37.1611 47.8008 37.0315 47.8753 36.9302 47.9832C36.829 48.0911 36.7606 48.2277 36.7335 48.376C36.7065 48.5242 36.7221 48.6774 36.7783 48.8164C36.8346 48.9555 36.9289 49.0742 37.0497 49.1576C37.1704 49.2411 37.3121 49.2856 37.457 49.2857C37.5564 49.2905 37.6558 49.2733 37.7484 49.2353C37.841 49.1973 37.9249 49.1393 37.9944 49.0651C38.064 48.991 38.1177 48.9023 38.152 48.805C38.1864 48.7077 38.2005 48.604 38.1935 48.5006Z" fill="#1C1C1C"></path><path d="M42.1513 49.1572C42.1513 49.8903 41.5047 50.2045 40.8074 50.2045C40.1608 50.2045 39.6707 49.9609 39.4268 49.4441L40.2667 48.9705C40.3002 49.0862 40.3729 49.1869 40.4727 49.2557C40.5724 49.3245 40.6931 49.3573 40.8143 49.3484C41.0444 49.3484 41.1641 49.2779 41.1641 49.1504C41.1641 48.7975 39.574 48.9842 39.574 47.8777C39.574 47.1833 40.1677 46.8304 40.8396 46.8304C41.0921 46.8221 41.3421 46.8811 41.5636 47.0013C41.785 47.1214 41.9697 47.2983 42.0984 47.5134L41.2723 47.9551C41.2368 47.8709 41.1766 47.7992 41.0994 47.7493C41.0223 47.6993 40.9318 47.6735 40.8396 47.675C40.6717 47.675 40.5681 47.7388 40.5681 47.8526C40.5612 48.2169 42.1513 47.9756 42.1513 49.1572Z" fill="#1C1C1C"></path><path d="M48.8085 48.0649L48.8085 49.8977L47.8998 49.8977L47.8998 48.1416C47.8998 47.8436 47.7549 47.6541 47.4672 47.6541C47.1795 47.6541 46.9956 47.867 46.9956 48.2139L46.9956 49.8977L46.0848 49.8977L46.0848 48.1416C46.0848 47.8436 45.9377 47.6541 45.6521 47.6541C45.3666 47.6541 45.1784 47.867 45.1784 48.2139L45.1784 49.8977L44.2676 49.8977L44.2676 46.9176L45.1784 46.9176L45.1784 47.1922C45.2723 47.0698 45.3961 46.9728 45.5383 46.9099C45.6804 46.847 45.8364 46.8204 45.9918 46.8324C46.1474 46.8252 46.3022 46.8577 46.4413 46.9267C46.5804 46.9957 46.6991 47.0989 46.7857 47.2262C46.8869 47.093 47.0207 46.987 47.1746 46.9181C47.3285 46.8493 47.4976 46.8198 47.6662 46.8324C48.3542 46.8346 48.8085 47.3178 48.8085 48.0649Z" fill="#1C1C1C"></path><path d="M51.0401 49.3468C51.1436 49.3501 51.2466 49.3303 51.3429 49.2884C51.4391 49.2465 51.5266 49.1836 51.5999 49.1034L52.2965 49.5447C52.1518 49.7611 51.9602 49.9346 51.739 50.0494C51.5178 50.1642 51.2741 50.2167 51.0297 50.2021C50.0345 50.2021 49.4167 49.4673 49.4167 48.5164C49.4106 48.2921 49.4465 48.0688 49.5224 47.8603C49.5982 47.6519 49.7123 47.4627 49.8575 47.3047C50.0027 47.1466 50.176 47.023 50.3666 46.9414C50.5572 46.8599 50.761 46.8223 50.9655 46.8308C51.1648 46.8293 51.3624 46.8724 51.546 46.9574C51.7297 47.0425 51.8957 47.1677 52.0338 47.3254C52.172 47.4831 52.2794 47.6701 52.3495 47.8749C52.4196 48.0796 52.451 48.2979 52.4417 48.5164C52.4425 48.6447 52.4314 48.7728 52.4085 48.8986L50.3352 48.8986C50.4533 49.2376 50.7208 49.3468 51.0401 49.3468ZM51.575 48.1843C51.5317 48.0408 51.4483 47.916 51.3367 47.8274C51.225 47.7389 51.0908 47.6913 50.953 47.6913C50.8153 47.6913 50.681 47.7389 50.5694 47.8274C50.4577 47.916 50.3743 48.0408 50.331 48.1843L51.575 48.1843Z" fill="#1C1C1C"></path><path d="M54.6726 49.3315C54.7734 49.3361 54.874 49.3184 54.9684 49.2793C55.0628 49.2403 55.1492 49.1807 55.2222 49.1042L55.9185 49.5452C55.774 49.7616 55.5827 49.9351 55.3619 50.0498C55.1411 50.1644 54.8978 50.2168 54.654 50.2021C53.6643 50.2021 53.0486 49.4679 53.0486 48.5178C53.0421 48.2924 53.078 48.0681 53.1541 47.8587C53.2302 47.6494 53.3448 47.4596 53.4906 47.3012C53.6365 47.1429 53.8106 47.0194 54.0019 46.9385C54.1932 46.8576 54.3976 46.8211 54.6024 46.8312C54.8011 46.8298 54.9979 46.8728 55.181 46.9578C55.364 47.0428 55.5294 47.1679 55.6671 47.3255C55.8047 47.4831 55.9118 47.6699 55.9816 47.8745C56.0515 48.0791 56.0828 48.2972 56.0735 48.5155C56.0747 48.6438 56.063 48.7719 56.0384 48.8974L53.9825 48.8974C54.0879 49.2224 54.3544 49.3315 54.6726 49.3315ZM55.2057 48.17C55.1626 48.0267 55.0795 47.9019 54.9682 47.8135C54.8569 47.725 54.7231 47.6774 54.5859 47.6774C54.4486 47.6774 54.3148 47.725 54.2035 47.8135C54.0922 47.9019 54.0091 48.0267 53.966 48.17L55.2057 48.17Z" fill="#1C1C1C"></path><path d="M57.8423 47.6646L57.8423 48.7664C57.8423 49.0331 58.0692 49.0573 58.498 49.033L58.498 49.8727C57.2501 49.9983 56.8871 49.6325 56.8871 48.7708L56.8871 47.669L56.3789 47.669L56.3789 46.7875L56.8871 46.7875L56.8871 46.1859L57.8423 45.9082L57.8423 46.7743L58.498 46.7743L58.498 47.6557L57.8423 47.6646Z" fill="#1C1C1C"></path><path d="M58.7998 49.5897C58.7998 49.4683 58.8353 49.3497 58.9018 49.2488C58.9684 49.1479 59.0629 49.0692 59.1736 49.0228C59.2842 48.9763 59.4059 48.9642 59.5234 48.9879C59.6408 49.0115 59.7487 49.07 59.8334 49.1558C59.918 49.2416 59.9757 49.351 59.9991 49.47C60.0224 49.589 60.0104 49.7124 59.9646 49.8245C59.9188 49.9366 59.8412 50.0325 59.7416 50.0999C59.6421 50.1673 59.525 50.2033 59.4053 50.2033C59.2449 50.2027 59.0912 50.1379 58.9778 50.0229C58.8644 49.908 58.8004 49.7522 58.7998 49.5897Z" fill="#1C1C1C"></path><path d="M26.1055 18.0269L26.1055 18.3764C26.1055 18.6803 26.2366 18.9718 26.4701 19.1867C26.7036 19.4016 27.0203 19.5223 27.3505 19.5223L28.7958 19.5223C29.126 19.5223 29.4427 19.4016 29.6762 19.1867C29.9097 18.9718 30.0409 18.6803 30.0409 18.3764L30.0409 17.6816C30.0409 17.6816 28.3494 17.7854 26.1055 18.0269Z" fill="#1C1C1C"></path><path d="M35.1872 8.78355L30.0982 0.5L26.1055 0.5L26.1055 13.6928C27.338 13.5531 28.6341 13.4313 29.987 13.3389L29.987 7.359L33.0286 12.2976L35.1872 8.78355Z" fill="#1C1C1C"></path><path d="M40.9688 0.5L35.4847 9.59506L33.3701 13.0982L33.3945 13.1386C34.0809 13.1207 34.7784 13.1094 35.4847 13.1094C36.191 13.1094 36.8907 13.1207 37.5793 13.1409L41.0777 7.34434L41.0777 18.4405C41.0777 18.7274 41.1902 19.0025 41.3906 19.2053C41.5909 19.4081 41.8627 19.522 42.1461 19.522L43.8053 19.522C44.0886 19.522 44.3604 19.4081 44.5608 19.2053C44.7611 19.0025 44.8737 18.7274 44.8737 18.4405L44.8737 0.5L40.9688 0.5Z" fill="#1C1C1C"></path><path d="M56.6803 17.066L56.5552 17.1043C53.8314 17.9893 50.939 18.214 48.1129 17.7601L48.0928 17.7601L47.9677 17.7398C47.8112 17.7128 47.6503 17.688 47.4895 17.6655L46.6716 17.5438L46.037 17.4581L45.7822 17.4221L45.7822 14.9204L46.837 15.0624L47.228 15.1187L47.6146 15.1751C47.8693 15.2111 48.1218 15.2517 48.3654 15.29L48.9822 15.3892L49.4447 15.4681C50.0794 15.5763 50.6827 15.6934 51.248 15.7971L52.0257 15.9504L52.3184 16.0112L52.6067 16.0721C52.8793 16.1284 53.143 16.187 53.391 16.2411L53.4022 16.2411C55.0178 16.6062 56.1507 16.915 56.6803 17.066Z" fill="#1C1C1C"></path><path d="M35.657 14C24.9168 14 16.3676 16.4571 14.6016 17.0034L14.7255 17.0443C17.429 17.991 20.2998 18.2301 23.1043 17.7422C27.2559 17.0212 31.4528 16.6527 35.657 16.64C37.2681 16.64 38.8327 16.6978 40.3332 16.7989L40.3332 14.1516C38.835 14.0578 37.2703 14 35.657 14Z" fill="#1C1C1C"></path><path d="M55.9663 14.8965C56.0244 14.9549 56.0614 15.0302 56.0718 15.111C56.0823 15.1918 56.0656 15.2738 56.0244 15.3445C55.9831 15.4153 55.9194 15.471 55.843 15.5033C55.7665 15.5355 55.6814 15.5426 55.6005 15.5234C55.2779 15.4456 53.885 15.101 51.9763 14.6919C49.8336 12.3463 46.6298 7.96414 45.7822 6.70352L45.7822 1.4209C48.9724 7.67288 53.8055 12.7843 55.9663 14.8965Z" fill="#1C1C1C"></path><path d="M55.5136 14.6133L54.8643 15.5102C56.0787 15.8261 56.9833 16.1473 56.9833 16.1473L55.5136 14.6133Z" fill="#1C1C1C"></path><path d="M15.3174 14.8954C15.2597 14.9531 15.2225 15.0284 15.2115 15.1097C15.2004 15.1909 15.2161 15.2735 15.2562 15.3448C15.2963 15.4161 15.3585 15.4721 15.4332 15.5042C15.5079 15.5363 15.591 15.5427 15.6697 15.5223C15.9846 15.4445 17.3344 15.0999 19.193 14.6909C21.2695 12.3454 24.3744 7.96362 25.1979 6.7031L25.1979 1.4209C22.0953 7.67239 17.4093 12.7834 15.3174 14.8954Z" fill="#1C1C1C"></path><path d="M15.5561 14.6133L16.1142 15.5102C15.0723 15.8261 14.2979 16.1473 14.2979 16.1473L15.5561 14.6133Z" fill="#1C1C1C"></path></svg>