<svg width="76" height="26" viewBox="0 0 76 26" fill="none" xmlns="http://www.w3.org/2000/svg"><path d="M2.83571 5.74062L17.6162 5.74062C18.8541 5.74062 19.8499 6.69907 19.8499 7.87203L19.8499 22.0043C19.8499 23.1773 18.8541 24.1357 17.6162 24.1357L2.83571 24.1357C1.59776 24.1357 0.601953 23.1773 0.601953 22.0043L0.601953 7.87203C0.601953 6.69907 1.59776 5.74062 2.83571 5.74062Z" fill="white" stroke="black" stroke-width="0.2"></path><path d="M9.81934 17.6332C14.8427 18.3193 16.6086 20.1249 16.6086 20.1249L16.6086 9.75439C16.6086 9.75439 14.6132 12.062 9.81934 12.8394L9.81934 17.6332Z" fill="#1C1C1C"></path><g><g><g><path d="M7.69931 12.8566L4.31344 12.8993C4.09781 12.901 3.88466 12.9434 3.68617 13.024C3.48768 13.1046 3.30778 13.2218 3.15676 13.369C3.00573 13.5161 2.88655 13.6904 2.80605 13.8816C2.72553 14.0729 2.68529 14.2774 2.68759 14.4836L2.71482 16.2055C2.71944 16.6221 2.8967 17.0199 3.20769 17.3117C3.51869 17.6035 3.93804 17.7654 4.37373 17.762L5.04858 17.762L5.06025 18.9223L6.59664 17.7471L7.76348 17.7229C7.9792 17.721 8.19244 17.6783 8.39091 17.5976C8.58945 17.5168 8.76932 17.3994 8.92031 17.252C9.07129 17.1048 9.19047 16.9304 9.27097 16.7391C9.35139 16.5477 9.39164 16.343 9.38937 16.1367L9.36211 14.4148C9.36034 14.208 9.3159 14.0036 9.23129 13.8132C9.14667 13.6228 9.02359 13.4504 8.86913 13.3056C8.71466 13.1608 8.53181 13.0466 8.33107 12.9696C8.13032 12.8925 7.9156 12.8541 7.69931 12.8566Z" fill="#1C1C1C"></path></g></g></g><g><g><g><path d="M16.8809 13.8491L16.8809 16.0526L18.2072 15.4836L18.1664 14.2043L16.8809 13.8491Z" fill="#1C1C1C"></path></g></g></g><path d="M38.175 13.1835C38.175 15.3703 37.6603 17.1163 36.6308 18.4217C35.6014 19.7271 34.2102 20.3804 32.4573 20.3816C31.826 20.3972 31.199 20.2779 30.622 20.0325C30.045 19.7871 29.5325 19.4216 29.122 18.9629L29.122 25.5437L24.5342 25.5437L24.5342 6.03738L28.8127 6.03738L28.9489 7.33904C29.3588 6.83662 29.8867 6.43346 30.4898 6.16211C31.0928 5.89078 31.7541 5.75887 32.4203 5.77704C34.2354 5.77704 35.6467 6.41672 36.6542 7.69607C37.6616 8.97538 38.1653 10.7351 38.1653 12.9752L38.175 13.1835ZM33.5794 12.9102C33.5794 10.4109 32.817 9.16135 31.2924 9.16135C30.2033 9.16135 29.4772 9.53328 29.1141 10.2771L29.1141 15.8258C29.5122 16.6068 30.2473 16.9974 31.3196 16.9974C32.7859 16.9923 33.5392 15.7862 33.5794 13.3787L33.5794 12.9102Z" fill="#1C1C1C"></path><path d="M44.4705 20.121L39.877 20.121L39.877 6.03711L44.4705 6.03711L44.4705 20.121Z" fill="#1C1C1C"></path><path d="M51.5158 6.03582L51.6656 7.69081C52.6833 6.41516 54.0855 5.77734 55.8721 5.77734C57.4059 5.77734 58.5514 6.21557 59.3086 7.09202C60.0658 7.96848 60.4586 9.28749 60.4871 11.0491L60.4871 20.1216L55.8857 20.1216L55.8857 11.2239C55.8857 10.5123 55.736 9.98914 55.4365 9.6544C55.137 9.31973 54.5931 9.15487 53.8048 9.15982C52.9063 9.15982 52.2393 9.49823 51.8036 10.1751L51.8036 20.1198L47.2139 20.1198L47.2139 6.03582L51.5158 6.03582Z" fill="#1C1C1C"></path><path d="M61.9326 12.9747C61.9059 11.6819 62.1554 10.3975 62.6658 9.19994C63.0967 8.17753 63.83 7.29743 64.7759 6.66729C65.7226 6.06441 66.8398 5.75354 67.977 5.77659C69.5095 5.77659 70.7078 6.27245 71.571 7.26419L71.7342 6.04063L75.8981 6.04063L75.8981 19.5927C75.9272 20.7318 75.6128 21.8548 74.9938 22.8283C74.3613 23.7664 73.4478 24.5006 72.3724 24.9351C71.1174 25.45 69.7624 25.7036 68.3971 25.6789C67.3216 25.6797 66.2562 25.4808 65.2601 25.0932C64.2489 24.7027 63.4748 24.195 62.9381 23.5702L64.8576 20.9929C65.712 21.9562 66.8374 22.4378 68.2337 22.4378C70.2677 22.4378 71.2842 21.4399 71.2835 19.444L71.2835 18.9884C70.8675 19.4392 70.3529 19.7975 69.7769 20.0381C69.2007 20.2787 68.5764 20.3958 67.9479 20.3812C67.1106 20.4029 66.2798 20.2356 65.5229 19.8928C64.766 19.55 64.1043 19.0414 63.5915 18.4083C62.4843 17.0905 61.9313 15.3314 61.9326 13.1309L61.9326 12.9747ZM66.532 13.2481C66.532 14.401 66.7596 15.314 67.2147 15.9871C67.4086 16.3033 67.6878 16.5638 68.0231 16.7414C68.3584 16.919 68.7374 17.0073 69.1205 16.9969C70.1085 16.9969 70.8292 16.6801 71.2835 16.0467L71.2835 10.1241C70.8398 9.48073 70.1266 9.15963 69.1439 9.16092C68.755 9.15386 68.3713 9.24738 68.0334 9.43172C67.6955 9.61599 67.416 9.88415 67.2244 10.2078C66.7628 10.907 66.532 11.9204 66.532 13.2481Z" fill="#1C1C1C"></path><path d="M42.1754 5.08862C41.5059 5.11697 40.8497 4.9032 40.3376 4.48986C40.1078 4.30011 39.925 4.06383 39.8026 3.79816C39.6802 3.53249 39.6211 3.2441 39.6297 2.9539C39.6211 2.6637 39.6802 2.37531 39.8026 2.10964C39.925 1.84397 40.1078 1.6077 40.3376 1.41794C40.8643 1.02982 41.5105 0.819336 42.1754 0.819336C42.8404 0.819336 43.4866 1.02982 44.0133 1.41794C44.2426 1.60803 44.4251 1.84437 44.5475 2.10996C44.6699 2.37554 44.7292 2.66377 44.7211 2.9539C44.7292 3.24403 44.6699 3.53226 44.5475 3.79784C44.4251 4.06343 44.2426 4.29977 44.0133 4.48986C43.5009 4.90288 42.845 5.1166 42.1754 5.08862Z" fill="#1C1C1C"></path></svg>