<svg width="84" height="36" viewBox="0 0 84 36" fill="none" xmlns="http://www.w3.org/2000/svg"><path fill-rule="evenodd" clip-rule="evenodd" d="M14.3589 23.8294C9.32008 23.8294 5.23512 19.6972 5.23512 14.5998C5.23512 9.50234 9.32008 5.36998 14.3589 5.36998C19.3976 5.36998 23.4823 9.50234 23.4823 14.5998C23.4823 19.6972 19.3976 23.8294 14.3589 23.8294ZM14.4787 0C6.48233 0 0 6.5575 0 14.6469C0 22.7363 6.48233 29.294 14.4787 29.294C22.475 29.294 28.9573 22.7363 28.9573 14.6469C28.9573 6.5575 22.475 0 14.4787 0ZM55.4657 21.722C56.0076 22.0028 56.8406 22.2838 57.6998 22.2838C58.6252 22.2838 59.1143 21.8959 59.1143 21.3074C59.1143 20.7458 58.6913 20.4248 57.6205 20.037C56.1399 19.5154 55.1749 18.6863 55.1749 17.3757C55.1749 15.8378 56.4439 14.6607 58.5459 14.6607C59.5507 14.6607 60.2909 14.8748 60.8197 15.1155L60.3702 16.7605C60.0133 16.5867 59.3788 16.3325 58.5062 16.3325C57.6337 16.3325 57.2106 16.7338 57.2106 17.2018C57.2106 17.7769 57.7129 18.031 58.8632 18.4723C60.4364 19.0607 61.1766 19.8899 61.1766 21.1604C61.1766 22.6716 60.0265 23.9554 57.5808 23.9554C56.5629 23.9554 55.5582 23.688 55.0558 23.4071L55.4657 21.722ZM41.1902 18.8066H41.9833C42.988 18.8066 43.583 18.2985 43.583 17.5093C43.583 16.6802 43.0277 16.2657 42.1024 16.2523C41.6132 16.2523 41.3355 16.2925 41.1902 16.3192V18.8066ZM39.194 14.9282C39.8417 14.8212 40.8068 14.741 41.8776 14.741C43.1996 14.741 44.125 14.9416 44.7595 15.45C45.2884 15.8779 45.5791 16.5064 45.5791 17.3355C45.5791 18.4856 44.7727 19.2747 44.0059 19.5555V19.5957C44.6272 19.8497 44.971 20.4516 45.1958 21.2807C45.2717 21.5587 45.3476 21.8487 45.4214 22.1304C45.6173 22.8789 45.798 23.569 45.9228 23.8217H43.8606C43.7152 23.5676 43.5035 22.8321 43.2392 21.722C43.0012 20.5986 42.6179 20.2911 41.7982 20.2777H41.1902V23.8217H39.194V14.9282ZM31.581 16.5197H33.9738V23.8217H35.9963V16.5197H38.4289V14.8079H31.581V16.5197ZM34.5761 33.3537C33.7214 33.3537 32.8929 33.0743 32.3538 32.795L31.9461 34.4712C32.4458 34.7505 33.4452 35.0165 34.4577 35.0165C36.8904 35.0165 38.0344 33.7395 38.0344 32.2363C38.0344 30.9724 37.298 30.1477 35.7333 29.5625C34.5892 29.1235 34.0895 28.8707 34.0895 28.2987C34.0895 27.8331 34.5103 27.434 35.3782 27.434C36.2461 27.434 36.8772 27.6868 37.2323 27.8596L37.6795 26.2235C37.1534 25.9841 36.4171 25.7712 35.4176 25.7712C33.327 25.7712 32.0645 26.9418 32.0645 28.4717C32.0645 29.7752 33.0245 30.6 34.4972 31.1189C35.5623 31.5046 35.9831 31.8239 35.9831 32.3826C35.9831 32.9679 35.4966 33.3537 34.5761 33.3537ZM41.1375 29.3629V25.9176H39.1255V34.8835H41.1375V31.1322H44.4381V34.8835H46.4367V25.9176H44.4381V29.3629H41.1375ZM49.7014 30.4271C49.7014 32.1831 50.5168 33.4202 51.858 33.4202C53.2125 33.4202 53.9882 32.1165 53.9882 30.3739C53.9882 28.7643 53.2257 27.3808 51.8448 27.3808C50.4905 27.3808 49.7014 28.6844 49.7014 30.4271ZM56.1054 30.3074C56.1054 33.2473 54.3433 35.0298 51.7529 35.0298C49.1229 35.0298 47.5844 33.0211 47.5844 30.467C47.5844 27.7799 49.2806 25.7712 51.8975 25.7712C54.6195 25.7712 56.1054 27.8331 56.1054 30.3074ZM59.8974 30.1611C59.6081 30.1611 59.3978 30.1477 59.2268 30.108V27.4606C59.3715 27.4207 59.6476 27.3808 60.0551 27.3808C61.0546 27.3808 61.62 27.873 61.62 28.6978C61.62 29.6157 60.9625 30.1611 59.8974 30.1611ZM59.95 25.8511C58.7271 25.8511 57.8592 25.9308 57.2411 26.0373V34.8835H59.2268V31.6776C59.4108 31.7041 59.6476 31.7175 59.9105 31.7175C61.094 31.7175 62.1066 31.4248 62.7903 30.773C63.3163 30.2675 63.6056 29.5226 63.6056 28.6446C63.6056 27.7665 63.2242 27.0217 62.6589 26.5693C62.0671 26.0905 61.1861 25.8511 59.95 25.8511ZM64.6506 32.795C65.1898 33.0743 66.0183 33.3537 66.873 33.3537C67.7934 33.3537 68.28 32.9679 68.28 32.3826C68.28 31.8239 67.8592 31.5046 66.7941 31.1189C65.3213 30.6 64.3614 29.7752 64.3614 28.4717C64.3614 26.9418 65.6237 25.7712 67.7145 25.7712C68.7139 25.7712 69.4504 25.9841 69.9762 26.2235L69.5292 27.8596C69.1741 27.6868 68.5429 27.434 67.6751 27.434C66.8072 27.434 66.3865 27.8331 66.3865 28.2987C66.3865 28.8707 66.8862 29.1235 68.0301 29.5625C69.5949 30.1477 70.3313 30.9724 70.3313 32.2363C70.3313 33.7395 69.1873 35.0165 66.7546 35.0165C65.7421 35.0165 64.7428 34.7505 64.243 34.4712L64.6506 32.795ZM48.7662 19.9969V14.8079H46.7435V19.8364C46.7435 22.7117 48.0655 23.9689 50.3129 23.9689C52.6395 23.9689 54.0277 22.6449 54.0277 19.8631V14.8079H52.0183V19.9969C52.0183 21.5883 51.4366 22.3372 50.379 22.3372C49.3478 22.3372 48.7662 21.5481 48.7662 19.9969ZM61.573 16.5197H63.9659V23.8217H65.9884V16.5197H68.421V14.8079H61.573V16.5197ZM74.4872 20.0103H71.2087V22.1501H74.8706V23.8217H69.1861V14.8079H74.6856V16.4796H71.2087V18.3519H74.4872V20.0103ZM78.8444 22.3239C78.5931 22.3239 78.3155 22.3239 78.1436 22.2838V16.386C78.3155 16.3459 78.6064 16.3058 79.0559 16.3058C80.7877 16.3058 81.8716 17.2954 81.8585 19.1678C81.8585 21.3209 80.6687 22.3372 78.8444 22.3239ZM78.8444 14.741C77.8264 14.741 76.8614 14.8079 76.121 14.9282V23.7816C76.6234 23.8485 77.3638 23.9153 78.4081 23.9153C80.1531 23.9153 81.5808 23.5409 82.5194 22.7518C83.3788 22.0163 84 20.826 84 19.1008C84 17.5093 83.4184 16.3995 82.493 15.704C81.6338 15.0486 80.5365 14.741 78.8444 14.741ZM15.872 9.21144C16.5641 9.21144 16.9391 9.73662 16.9391 10.4077C16.9391 12.7128 14.2567 14.3177 12.3243 14.9013C12.7281 13.2963 13.7954 9.21144 15.872 9.21144ZM12.6704 21.2913C15.1508 21.2913 16.9967 19.482 18.3234 17.498L17.6025 16.9435C16.6507 18.1107 15.3527 19.6864 13.7377 19.6864C12.4972 19.6864 11.8917 18.636 11.8917 17.498C11.8917 16.9435 11.9781 16.3894 12.0646 15.8349C12.1929 15.8021 12.3279 15.768 12.4686 15.7326C15.0824 15.074 19.6792 13.9157 19.6792 10.7871C19.6792 8.94894 17.6602 8.33592 16.1604 8.33592C11.6897 8.33592 8.51694 12.5961 8.51694 16.9435C8.51694 19.6281 10.0456 21.2913 12.6704 21.2913Z" fill="black"></path></svg>